<svg width="19" height="18" viewBox="0 0 19 18" fill="none" xmlns="http://www.w3.org/2000/svg">
<path fill-rule="evenodd" clip-rule="evenodd" d="M18.0744 0.03703C17.5973 0.167528 17.3218 0.414192 16.3238 1.60433C15.939 2.06314 14.9417 3.23685 14.1075 4.21253C13.2733 5.1882 11.2699 7.53436 9.65551 9.42616L6.72028 12.8658L6.61668 12.76C6.55969 12.7018 5.82124 11.8683 4.97563 10.9079C4.13008 9.94738 3.37039 9.10611 3.28746 9.0383C2.99736 8.8012 2.55605 8.63283 2.15437 8.60607C0.380088 8.48786 -0.643281 10.398 0.451633 11.7842C0.723249 12.128 5.35165 17.3578 5.50211 17.4908C6.01427 17.9438 6.77279 18.1131 7.43946 17.9233C7.76078 17.8319 8.20503 17.5501 8.39436 17.3177C8.47188 17.2226 9.8701 15.124 11.5015 12.6542C16.1003 5.69215 17.2599 3.93842 18.0195 2.79714C18.7089 1.76122 18.8681 1.4609 18.9682 1.00713C19.1211 0.314583 18.7061 -0.135789 18.0744 0.03703Z" fill="#B0FF62"/>
</svg>
