<svg width="36" height="36" viewBox="0 0 36 36" fill="none" xmlns="http://www.w3.org/2000/svg">
<g clip-path="url(#clip0_24:21)">
<path d="M4.34592 36.336H27.4686L28.5 36C30.6357 39.069 35.8378 41.1429 35.8378 41.1429L36.375 4.125C36.2647 1.83128 33.8594 0 31.5438 0L4.35403 0.00514286C2.03998 0.00514286 -0.75 1.83128 -0.75 4.125L0.16214 32.0914C0.16214 34.5103 2.03673 36.336 4.34592 36.336ZM21.4507 9.74232L21.3973 9.76284L21.4167 9.74232H21.4507ZM9.0762 11.9177C12.0486 9.6309 14.8038 9.74061 14.8038 9.74061L15.0259 9.972C11.3887 10.8891 9.73941 12.6068 9.73941 12.6068C9.90807 12.5691 17.2524 8.08971 26.1519 12.72C26.1519 12.72 24.4994 11.1137 21.0859 10.0851L21.3876 9.77139C21.8594 9.7731 24.3568 9.86571 27.0291 11.9314C27.0291 11.9314 30.0195 17.3314 30.0195 23.9657C29.9206 23.8388 28.1643 26.8217 23.6449 26.9246C23.6449 26.9246 22.8794 26.0091 22.3345 25.2103C24.9778 24.408 25.967 22.8034 25.967 22.8034C20.8216 26.2286 16.3118 25.6937 10.9167 23.3794C10.8665 23.3794 10.8438 23.3554 10.8178 23.328V23.3177C10.7919 23.292 10.7692 23.2663 10.7189 23.2663H10.6216C10.2907 23.0366 10.0702 22.9235 10.0702 22.9235C10.0702 22.9235 11.0578 24.528 13.5956 25.3303C12.9292 26.1343 12.2691 27.048 12.2691 27.048C7.75132 26.9348 6.10376 23.952 6.10376 23.952C6.10376 17.3074 9.0762 11.9177 9.0762 11.9177Z" fill="white"/>
<path d="M21.7423 21.8931C22.8953 21.8931 23.8341 20.8644 23.8341 19.5959C23.8341 18.3359 22.9001 17.3074 21.7423 17.3074V17.3125C20.5941 17.3125 19.6536 18.3376 19.6504 19.6062C19.6504 20.8644 20.5893 21.8931 21.7423 21.8931Z" fill="white"/>
<path d="M14.254 21.8931C15.407 21.8931 16.3458 20.8644 16.3458 19.5959C16.3458 18.3359 15.4134 17.3074 14.2605 17.3074L14.254 17.3125C13.101 17.3125 12.1621 18.3376 12.1621 19.6062C12.1621 20.8644 13.101 21.8931 14.254 21.8931Z" fill="white"/>
</g>
<defs>
<clipPath id="clip0_24:21">
<rect width="36" height="36" fill="white"/>
</clipPath>
</defs>
</svg>
